<svg width="127" height="90" viewBox="0 0 127 90" fill="none" xmlns="http://www.w3.org/2000/svg">
<path d="M79.2269 30.5467L69.1668 20.6186C64.5043 15.9605 64.5043 8.40661 69.1668 3.74849C73.8262 -0.906629 81.3789 -0.90752 86.0398 3.74571L119.267 36.7796C128.911 46.4138 128.911 62.0357 119.267 71.67C113.944 76.9883 106.796 79.3665 99.8479 78.8163C97.4486 85.0922 91.3665 89.5405 84.248 89.5405L38.2523 89.541C29.0463 89.541 21.5 82.0871 21.5 72.8455V63.0637C20.6427 63.1865 19.7662 63.25 18.875 63.25C8.72675 63.25 0.5 55.0233 0.5 44.875C0.5 34.7268 8.72675 26.4999 18.875 26.4999C25.7392 26.4999 31.7243 30.2638 34.8791 35.8403C39.1198 33.251 44.1028 31.7595 49.4263 31.7595H73.0739C74.6846 31.7595 76.2659 31.8965 77.8063 32.1596C78.2394 31.6146 78.7155 31.0702 79.2269 30.5467ZM80.4764 9.31964C78.8909 7.7354 76.3184 7.7354 74.7329 9.31964C73.1516 10.8994 73.149 13.4577 74.7256 15.0404L74.7329 15.0474L91.6516 31.7438L86.38 34.7693C85.0885 35.6046 83.6989 37.23 82.9765 38.5131L81.4603 41.2053L78.4846 40.3727C76.7683 39.8923 74.9545 39.6345 73.0739 39.6345H49.4263C38.3638 39.6345 29.375 48.5947 29.375 59.6181V72.8455C29.375 77.6954 33.3527 81.666 38.2523 81.666L63.4974 81.6655V79.9529C63.4974 75.0851 59.5462 71.1324 54.6643 71.1324H46.416C44.2414 71.1324 42.4785 69.3695 42.4785 67.1949C42.4785 65.0203 44.2414 63.2574 46.416 63.2574H54.6643C63.888 63.2574 71.3724 70.7287 71.3724 79.9529V81.6655H84.248C88.7693 81.6655 92.4921 78.2729 93.005 73.9144L93.5237 69.5049L97.8397 70.547C103.36 71.88 109.405 70.3911 113.702 66.0987C120.265 59.542 120.266 48.9144 113.706 42.3556L113.702 42.3509L80.4764 9.31964ZM28.644 41.0184C27.1067 37.1276 23.3123 34.375 18.875 34.375C13.076 34.375 8.375 39.0759 8.375 44.875C8.375 50.6742 13.076 55.375 18.875 55.375C19.9242 55.375 20.9375 55.2212 21.8935 54.9346C22.794 49.6357 25.1959 44.8478 28.644 41.0184Z" fill="#415556"/>
</svg>
