<svg width="119" height="94" viewBox="0 0 119 94" fill="none" xmlns="http://www.w3.org/2000/svg">
<path d="M117.613 29.9266L102.262 2.44065C101.469 1.02424 99.7153 0.124634 97.7934 0.124634H21.1826C19.2367 0.124634 17.483 1.02424 16.7143 2.44065L1.07503 30.386C1.07503 30.4051 -0.126145 32.3766 1.60354 34.2906L55.5362 92.2867C58.5391 95.1196 62.3588 93.5883 63.4158 92.2867L117.012 34.6543C117.997 33.9653 119.126 31.9555 117.613 29.9266ZM105.865 28.0699H79.4875L84.3643 7.93401H94.5983L105.865 28.0699ZM51.3561 35.8793H67.5959L59.476 69.3754L51.3561 35.8793ZM49.4582 28.0699L44.5815 7.93401H74.3705L69.4938 28.0699H49.4582ZM24.3537 7.93401H34.5877L39.4645 28.0699H13.0867L24.3537 7.93401ZM41.3623 35.8793L50.5633 73.816L15.2729 35.8793H41.3623ZM68.3887 73.8352L77.5897 35.8985H103.679L68.3887 73.8352Z" fill="#415556"/>
</svg>
