<svg width="98" height="98" viewBox="0 0 98 98" fill="none" xmlns="http://www.w3.org/2000/svg">
<path d="M31.5302 43.5862C36.2403 43.5862 40.0586 39.7679 40.0586 35.0578C40.0586 30.3477 36.2403 26.5294 31.5302 26.5294C26.8201 26.5294 23.0018 30.3477 23.0018 35.0578C23.0018 39.7679 26.8201 43.5862 31.5302 43.5862Z" fill="#415556"/>
<path d="M66.4698 43.5862C71.1799 43.5862 74.9982 39.7679 74.9982 35.0578C74.9982 30.3477 71.1799 26.5294 66.4698 26.5294C61.7597 26.5294 57.9414 30.3477 57.9414 35.0578C57.9414 39.7679 61.7597 43.5862 66.4698 43.5862Z" fill="#415556"/>
<path d="M23.875 65.0931C24.0424 65.2157 35.2038 73.3863 49.981 73.3863C57.422 73.3863 65.784 71.3137 74.1192 65.0959L70.4586 60.1851C49.2872 75.9761 28.421 60.8371 27.5418 60.1851L23.875 65.0931Z" fill="#415556"/>
<path d="M13.8172 98H84.183C91.8002 98 98 91.8002 98 84.1828V13.8172C98 6.1982 91.8002 0 84.1828 0H13.8172C6.1998 0 0 6.1982 0 13.8172V84.183C0 91.8002 6.1998 98 13.8172 98ZM6.125 13.8172C6.125 9.5764 9.5764 6.125 13.8172 6.125H84.183C88.4238 6.125 91.8752 9.5764 91.8752 13.8172V84.183C91.8752 88.4238 88.4238 91.8752 84.183 91.8752H13.8172C9.5764 91.8752 6.125 88.4238 6.125 84.183V13.8172Z" fill="#415556"/>
</svg>
