<svg width="99" height="95" viewBox="0 0 99 95" fill="none" xmlns="http://www.w3.org/2000/svg">
<path d="M91.1303 0.261719H7.87966C3.52154 0.261719 0 3.77995 0 8.13146V86.8718C0 91.2101 3.52154 94.7383 7.87966 94.7383H91.1303C95.4685 94.7383 99 91.2134 99 86.8718V8.13146C98.9967 3.77995 95.4652 0.261719 91.1303 0.261719ZM66.5456 28.3117C64.4988 27.1147 62.8753 26.169 60.8351 26.169C58.8379 26.169 57.1317 26.6683 56.2587 27.5082C55.3858 28.3415 54.9526 29.9551 54.9526 32.3392V35.8673H65.6297L63.3183 45.6814H54.9526V78.2912H41.541V45.6814H35.2816V35.8673H41.5476V32.1209C41.5476 28.1761 42.0204 25.8152 42.9529 23.8676C43.8821 21.9266 45.6842 19.7641 48.1906 18.5407C50.6937 17.3205 54.3971 16.7055 58.2295 16.7055C62.1577 16.7055 65.2262 18.0149 68.9892 19.0697L66.5456 28.3117Z" fill="white"/>
</svg>
