<svg width="95" height="95" viewBox="0 0 95 95" fill="none" xmlns="http://www.w3.org/2000/svg">
<path d="M47.499 38.0538C42.2917 38.0538 38.0517 42.2917 38.0517 47.499C38.0517 52.7083 42.2917 56.9483 47.499 56.9483C52.7083 56.9483 56.9462 52.7083 56.9462 47.499C56.9462 42.2917 52.7083 38.0538 47.499 38.0538ZM47.499 38.0538C42.2917 38.0538 38.0517 42.2917 38.0517 47.499C38.0517 52.7083 42.2917 56.9483 47.499 56.9483C52.7083 56.9483 56.9462 52.7083 56.9462 47.499C56.9462 42.2917 52.7083 38.0538 47.499 38.0538ZM63.2374 22.6509H31.7626C26.7387 22.6509 22.6509 26.7387 22.6509 31.7626V63.2374C22.6509 68.2612 26.7387 72.3491 31.7626 72.3491H63.2374C68.2612 72.3491 72.3491 68.2612 72.3491 63.2374V31.7626C72.3491 26.7387 68.2612 22.6509 63.2374 22.6509ZM47.499 63.8607C38.479 63.8607 31.1393 56.521 31.1393 47.499C31.1393 38.479 38.479 31.1393 47.499 31.1393C56.521 31.1393 63.8607 38.479 63.8607 47.499C63.8607 56.521 56.521 63.8607 47.499 63.8607ZM64.386 34.5225C62.2514 34.5225 60.515 32.7861 60.515 30.6515C60.515 28.5169 62.2514 26.7804 64.386 26.7804C66.5206 26.7804 68.2571 28.5169 68.2571 30.6515C68.2571 32.7861 66.5206 34.5225 64.386 34.5225ZM47.499 38.0538C42.2917 38.0538 38.0517 42.2917 38.0517 47.499C38.0517 52.7083 42.2917 56.9483 47.499 56.9483C52.7083 56.9483 56.9462 52.7083 56.9462 47.499C56.9462 42.2917 52.7083 38.0538 47.499 38.0538ZM63.2374 22.6509H31.7626C26.7387 22.6509 22.6509 26.7387 22.6509 31.7626V63.2374C22.6509 68.2612 26.7387 72.3491 31.7626 72.3491H63.2374C68.2612 72.3491 72.3491 68.2612 72.3491 63.2374V31.7626C72.3491 26.7387 68.2612 22.6509 63.2374 22.6509ZM47.499 63.8607C38.479 63.8607 31.1393 56.521 31.1393 47.499C31.1393 38.479 38.479 31.1393 47.499 31.1393C56.521 31.1393 63.8607 38.479 63.8607 47.499C63.8607 56.521 56.521 63.8607 47.499 63.8607ZM64.386 34.5225C62.2514 34.5225 60.515 32.7861 60.515 30.6515C60.515 28.5169 62.2514 26.7804 64.386 26.7804C66.5206 26.7804 68.2571 28.5169 68.2571 30.6515C68.2571 32.7861 66.5206 34.5225 64.386 34.5225ZM47.499 38.0538C42.2917 38.0538 38.0517 42.2917 38.0517 47.499C38.0517 52.7083 42.2917 56.9483 47.499 56.9483C52.7083 56.9483 56.9462 52.7083 56.9462 47.499C56.9462 42.2917 52.7083 38.0538 47.499 38.0538ZM0 0V95H95V0H0ZM79.2615 63.2374C79.2615 72.0739 72.0739 79.2615 63.2374 79.2615H31.7626C22.9261 79.2615 15.7385 72.0739 15.7385 63.2374V31.7626C15.7385 22.9261 22.9261 15.7385 31.7626 15.7385H63.2374C72.0739 15.7385 79.2615 22.9261 79.2615 31.7626V63.2374ZM63.2374 22.6509H31.7626C26.7387 22.6509 22.6509 26.7387 22.6509 31.7626V63.2374C22.6509 68.2612 26.7387 72.3491 31.7626 72.3491H63.2374C68.2612 72.3491 72.3491 68.2612 72.3491 63.2374V31.7626C72.3491 26.7387 68.2612 22.6509 63.2374 22.6509ZM47.499 63.8607C38.479 63.8607 31.1393 56.521 31.1393 47.499C31.1393 38.479 38.479 31.1393 47.499 31.1393C56.521 31.1393 63.8607 38.479 63.8607 47.499C63.8607 56.521 56.521 63.8607 47.499 63.8607ZM64.386 34.5225C62.2514 34.5225 60.515 32.7861 60.515 30.6515C60.515 28.5169 62.2514 26.7804 64.386 26.7804C66.5206 26.7804 68.2571 28.5169 68.2571 30.6515C68.2571 32.7861 66.5206 34.5225 64.386 34.5225ZM47.499 38.0538C42.2917 38.0538 38.0517 42.2917 38.0517 47.499C38.0517 52.7083 42.2917 56.9483 47.499 56.9483C52.7083 56.9483 56.9462 52.7083 56.9462 47.499C56.9462 42.2917 52.7083 38.0538 47.499 38.0538ZM47.499 38.0538C42.2917 38.0538 38.0517 42.2917 38.0517 47.499C38.0517 52.7083 42.2917 56.9483 47.499 56.9483C52.7083 56.9483 56.9462 52.7083 56.9462 47.499C56.9462 42.2917 52.7083 38.0538 47.499 38.0538ZM47.499 38.0538C42.2917 38.0538 38.0517 42.2917 38.0517 47.499C38.0517 52.7083 42.2917 56.9483 47.499 56.9483C52.7083 56.9483 56.9462 52.7083 56.9462 47.499C56.9462 42.2917 52.7083 38.0538 47.499 38.0538ZM63.2374 22.6509H31.7626C26.7387 22.6509 22.6509 26.7387 22.6509 31.7626V63.2374C22.6509 68.2612 26.7387 72.3491 31.7626 72.3491H63.2374C68.2612 72.3491 72.3491 68.2612 72.3491 63.2374V31.7626C72.3491 26.7387 68.2612 22.6509 63.2374 22.6509ZM47.499 63.8607C38.479 63.8607 31.1393 56.521 31.1393 47.499C31.1393 38.479 38.479 31.1393 47.499 31.1393C56.521 31.1393 63.8607 38.479 63.8607 47.499C63.8607 56.521 56.521 63.8607 47.499 63.8607ZM64.386 34.5225C62.2514 34.5225 60.515 32.7861 60.515 30.6515C60.515 28.5169 62.2514 26.7804 64.386 26.7804C66.5206 26.7804 68.2571 28.5169 68.2571 30.6515C68.2571 32.7861 66.5206 34.5225 64.386 34.5225ZM47.499 38.0538C42.2917 38.0538 38.0517 42.2917 38.0517 47.499C38.0517 52.7083 42.2917 56.9483 47.499 56.9483C52.7083 56.9483 56.9462 52.7083 56.9462 47.499C56.9462 42.2917 52.7083 38.0538 47.499 38.0538ZM47.499 38.0538C42.2917 38.0538 38.0517 42.2917 38.0517 47.499C38.0517 52.7083 42.2917 56.9483 47.499 56.9483C52.7083 56.9483 56.9462 52.7083 56.9462 47.499C56.9462 42.2917 52.7083 38.0538 47.499 38.0538ZM47.499 38.0538C42.2917 38.0538 38.0517 42.2917 38.0517 47.499C38.0517 52.7083 42.2917 56.9483 47.499 56.9483C52.7083 56.9483 56.9462 52.7083 56.9462 47.499C56.9462 42.2917 52.7083 38.0538 47.499 38.0538ZM63.2374 22.6509H31.7626C26.7387 22.6509 22.6509 26.7387 22.6509 31.7626V63.2374C22.6509 68.2612 26.7387 72.3491 31.7626 72.3491H63.2374C68.2612 72.3491 72.3491 68.2612 72.3491 63.2374V31.7626C72.3491 26.7387 68.2612 22.6509 63.2374 22.6509ZM47.499 63.8607C38.479 63.8607 31.1393 56.521 31.1393 47.499C31.1393 38.479 38.479 31.1393 47.499 31.1393C56.521 31.1393 63.8607 38.479 63.8607 47.499C63.8607 56.521 56.521 63.8607 47.499 63.8607ZM64.386 34.5225C62.2514 34.5225 60.515 32.7861 60.515 30.6515C60.515 28.5169 62.2514 26.7804 64.386 26.7804C66.5206 26.7804 68.2571 28.5169 68.2571 30.6515C68.2571 32.7861 66.5206 34.5225 64.386 34.5225ZM47.499 38.0538C42.2917 38.0538 38.0517 42.2917 38.0517 47.499C38.0517 52.7083 42.2917 56.9483 47.499 56.9483C52.7083 56.9483 56.9462 52.7083 56.9462 47.499C56.9462 42.2917 52.7083 38.0538 47.499 38.0538Z" fill="white"/>
</svg>
