<svg width="32" height="29" viewBox="0 0 32 29" fill="none" xmlns="http://www.w3.org/2000/svg">
<path d="M10.142 1.16602C10.2783 0.95588 10.4995 0.804352 10.7568 0.744776C11.0141 0.685199 11.2864 0.722454 11.514 0.848345C11.7416 0.974236 11.9056 1.17845 11.9702 1.41606C12.0347 1.65368 11.9943 1.90522 11.858 2.11537L6.766 9.95207H25.234L20.14 2.11537C20.0037 1.90522 19.9633 1.65368 20.0278 1.41606C20.0924 1.17845 20.2564 0.974236 20.484 0.848345C20.7116 0.722454 20.9839 0.685199 21.2412 0.744776C21.4985 0.804352 21.7197 0.95588 21.856 1.16602L27.566 9.95207H31C31.2652 9.95207 31.5196 10.0494 31.7071 10.2226C31.8946 10.3957 32 10.6306 32 10.8756V14.5695C32 14.8144 31.8946 15.0493 31.7071 15.2225C31.5196 15.3957 31.2652 15.493 31 15.493H30V24.7278C30 25.7075 29.5786 26.6471 28.8284 27.3399C28.0783 28.0326 27.0609 28.4218 26 28.4218H6C4.93913 28.4218 3.92172 28.0326 3.17157 27.3399C2.42143 26.6471 2 25.7075 2 24.7278V15.493H1C0.734784 15.493 0.48043 15.3957 0.292893 15.2225C0.105357 15.0493 0 14.8144 0 14.5695V10.8756C0 10.6306 0.105357 10.3957 0.292893 10.2226C0.48043 10.0494 0.734784 9.95207 1 9.95207H4.434L10.14 1.16602H10.142ZM7 18.2634C7 18.0185 6.89464 17.7836 6.70711 17.6104C6.51957 17.4373 6.26522 17.34 6 17.34C5.73478 17.34 5.48043 17.4373 5.29289 17.6104C5.10536 17.7836 5 18.0185 5 18.2634V23.8044C5 24.0493 5.10536 24.2842 5.29289 24.4574C5.48043 24.6306 5.73478 24.7278 6 24.7278C6.26522 24.7278 6.51957 24.6306 6.70711 24.4574C6.89464 24.2842 7 24.0493 7 23.8044V18.2634ZM12 18.2634C12 18.0185 11.8946 17.7836 11.7071 17.6104C11.5196 17.4373 11.2652 17.34 11 17.34C10.7348 17.34 10.4804 17.4373 10.2929 17.6104C10.1054 17.7836 10 18.0185 10 18.2634V23.8044C10 24.0493 10.1054 24.2842 10.2929 24.4574C10.4804 24.6306 10.7348 24.7278 11 24.7278C11.2652 24.7278 11.5196 24.6306 11.7071 24.4574C11.8946 24.2842 12 24.0493 12 23.8044V18.2634ZM17 18.2634C17 18.0185 16.8946 17.7836 16.7071 17.6104C16.5196 17.4373 16.2652 17.34 16 17.34C15.7348 17.34 15.4804 17.4373 15.2929 17.6104C15.1054 17.7836 15 18.0185 15 18.2634V23.8044C15 24.0493 15.1054 24.2842 15.2929 24.4574C15.4804 24.6306 15.7348 24.7278 16 24.7278C16.2652 24.7278 16.5196 24.6306 16.7071 24.4574C16.8946 24.2842 17 24.0493 17 23.8044V18.2634ZM22 18.2634C22 18.0185 21.8946 17.7836 21.7071 17.6104C21.5196 17.4373 21.2652 17.34 21 17.34C20.7348 17.34 20.4804 17.4373 20.2929 17.6104C20.1054 17.7836 20 18.0185 20 18.2634V23.8044C20 24.0493 20.1054 24.2842 20.2929 24.4574C20.4804 24.6306 20.7348 24.7278 21 24.7278C21.2652 24.7278 21.5196 24.6306 21.7071 24.4574C21.8946 24.2842 22 24.0493 22 23.8044V18.2634ZM27 18.2634C27 18.0185 26.8946 17.7836 26.7071 17.6104C26.5196 17.4373 26.2652 17.34 26 17.34C25.7348 17.34 25.4804 17.4373 25.2929 17.6104C25.1054 17.7836 25 18.0185 25 18.2634V23.8044C25 24.0493 25.1054 24.2842 25.2929 24.4574C25.4804 24.6306 25.7348 24.7278 26 24.7278C26.2652 24.7278 26.5196 24.6306 26.7071 24.4574C26.8946 24.2842 27 24.0493 27 23.8044V18.2634Z" fill="#08483A"/>
</svg>
