<svg width="99" height="69" viewBox="0 0 99 69" fill="none" xmlns="http://www.w3.org/2000/svg">
<path d="M64.7135 0H34.2865C15.3807 0 0 15.3807 0 34.2865C0 53.1923 15.3807 68.5731 34.2865 68.5731H64.7138C83.6193 68.5731 99 53.1923 99 34.2865C99 15.3807 83.6193 0 64.7135 0ZM64.7135 62.2088H34.2865C18.8903 62.2088 6.36429 49.6828 6.36429 34.2865C6.36429 18.8903 18.8903 6.36429 34.2865 6.36429H64.7138C80.1097 6.36429 92.6357 18.8903 92.6357 34.2865C92.6357 49.6828 80.1097 62.2088 64.7135 62.2088Z" fill="#C7FFCD"/>
<path d="M62.5924 30.5124L47.6689 18.0348C44.4662 15.3572 39.594 17.6342 39.594 21.8089V46.7639C39.594 50.9385 44.4662 53.2159 47.6689 50.5379L62.5924 38.0604C64.9444 36.0942 64.9444 32.4786 62.5924 30.5124Z" fill="#C7FFCD"/>
</svg>
