<svg width="102" height="118" viewBox="0 0 102 118" fill="none" xmlns="http://www.w3.org/2000/svg">
<path d="M94.5445 42.4247C96.4418 42.4247 98.2249 41.6863 99.5664 40.3448C100.908 39.0031 101.647 37.22 101.647 35.3227C101.647 33.4255 100.908 31.6423 99.5664 30.3009L92.536 23.2703C91.1946 21.9285 89.4114 21.1901 87.5142 21.1901C85.6169 21.1901 83.8338 21.9285 82.4923 23.2703C79.9461 25.8162 79.7431 29.8296 81.8791 32.612L80.2066 34.1793C74.2313 29.4043 67.0729 26.051 59.2469 24.6412V21.0674C64.8736 20.8565 69.3868 16.2159 69.3868 10.5387C69.3868 4.72762 64.6592 0 58.8481 0H42.9192C37.1081 0 32.3805 4.72762 32.3805 10.5387C32.3805 16.2159 36.8936 20.8565 42.5204 21.0674V24.6412C34.6258 26.0635 27.4111 29.4634 21.4045 34.3051L19.9649 32.8094C22.266 30.0226 22.114 25.8772 19.5075 23.2703C18.1661 21.9285 16.3824 21.1901 14.4854 21.1901C12.5884 21.1901 10.805 21.9285 9.46357 23.2703L2.43321 30.3009C1.09179 31.6423 0.353027 33.4255 0.353027 35.3227C0.353027 37.22 1.09179 39.0031 2.43321 40.3446C3.77464 41.6863 5.55837 42.4247 7.45533 42.4247C9.0603 42.4247 10.5833 41.894 11.8268 40.9188L13.3955 42.5489C7.39733 50.4468 3.83181 60.2886 3.83181 70.9486C3.83181 96.8928 24.9393 118 50.8838 118C76.8282 118 97.9355 96.8928 97.9355 70.9486C97.9355 60.2144 94.3197 50.3102 88.2457 42.3843L89.9778 40.7609C91.2557 41.8374 92.8545 42.4247 94.5445 42.4247ZM89.569 70.9483C89.569 92.2792 72.2147 109.634 50.8838 109.634C29.5526 109.634 12.1983 92.2792 12.1983 70.9483C12.1983 49.6171 29.5526 32.2628 50.8838 32.2628C72.215 32.2631 89.569 49.6171 89.569 70.9483Z" fill="white"/>
<path d="M50.8838 41.1184C34.4356 41.1184 21.054 54.5 21.054 70.9483C21.054 87.3965 34.4356 100.778 50.8838 100.778C67.332 100.778 80.7134 87.3965 80.7134 70.9483C80.7134 54.5 67.332 41.1184 50.8838 41.1184ZM66.7335 62.6283L56.8828 71.2553C56.8101 72.6904 56.2322 74.1046 55.1362 75.2007C52.7877 77.5491 48.9799 77.5491 46.6314 75.2007C44.2829 72.8519 44.2829 69.0443 46.6314 66.6959C47.9307 65.3965 49.6762 64.8193 51.3746 64.9579L61.2211 56.3345C62.9594 54.8127 65.6018 54.9872 67.1243 56.7252C68.6464 58.4635 68.4713 61.1062 66.7335 62.6283Z" fill="white"/>
</svg>
