<svg width="39" height="39" viewBox="0 0 39 39" fill="none" xmlns="http://www.w3.org/2000/svg">
<path d="M38.9133 14.9723C38.7047 14.3303 38.1498 13.8625 37.482 13.7656L26.1556 12.12L21.0901 1.8556C20.7914 1.2504 20.175 0.867188 19.5002 0.867188C18.8252 0.867188 18.2088 1.2504 17.9102 1.8556L12.8451 12.1198L1.51837 13.7655C0.850527 13.8625 0.295565 14.3303 0.087056 14.9722C-0.121453 15.6141 0.0524226 16.3188 0.535753 16.7898L8.7318 24.7782L6.79624 36.0601C6.68217 36.7254 6.95557 37.3976 7.50155 37.7943C7.81041 38.0187 8.17625 38.1329 8.54386 38.1329C8.82601 38.1329 9.10934 38.0657 9.3688 37.9293L19.5001 32.6032L29.6312 37.9293C29.8922 38.0665 30.178 38.1319 30.4611 38.1329C31.4392 38.1315 32.2317 37.3382 32.2317 36.3599C32.2317 36.2237 32.2163 36.091 32.1872 35.9637L30.2684 24.7783L38.4645 16.7898C38.9479 16.3188 39.1218 15.6141 38.9133 14.9723Z" fill="white"/>
</svg>
