<svg width="29" height="49" viewBox="0 0 29 49" fill="none" xmlns="http://www.w3.org/2000/svg">
<path d="M1.85287 43.3111C1.29535 43.9095 0.991827 44.7008 1.00625 45.5185C1.02068 46.3362 1.35193 47.1164 1.93021 47.6946C2.50849 48.2729 3.28865 48.6042 4.10633 48.6186C4.92402 48.633 5.71538 48.3295 6.3137 47.772L27.3554 26.7303C27.6487 26.4372 27.8813 26.0892 28.0401 25.7061C28.1988 25.323 28.2805 24.9124 28.2805 24.4978C28.2805 24.0831 28.1988 23.6725 28.0401 23.2895C27.8813 22.9064 27.6487 22.5584 27.3554 22.2653L6.3137 1.2236C5.71815 0.648938 4.92073 0.331177 4.09317 0.338756C3.26561 0.346334 2.47413 0.678647 1.88921 1.26412C1.30429 1.84959 0.972725 2.64138 0.965927 3.46895C0.959128 4.29651 1.27764 5.09364 1.85287 5.68864L20.6641 24.4999L1.85287 43.3111Z" fill="white"/>
</svg>
