<svg width="29" height="49" viewBox="0 0 29 49" fill="none" xmlns="http://www.w3.org/2000/svg">
<path d="M27.1471 5.68885C27.7047 5.09053 28.0082 4.29917 27.9937 3.48149C27.9793 2.66381 27.6481 1.88364 27.0698 1.30536C26.4915 0.727085 25.7114 0.395835 24.8937 0.381408C24.076 0.366981 23.2846 0.670502 22.6863 1.22802L1.64463 22.2697C1.35133 22.5628 1.11867 22.9108 0.959923 23.2939C0.80118 23.677 0.719476 24.0876 0.719476 24.5022C0.719476 24.9169 0.80118 25.3275 0.959923 25.7105C1.11867 26.0936 1.35133 26.4416 1.64463 26.7347L22.6863 47.7764C23.2818 48.3511 24.0793 48.6688 24.9068 48.6612C25.7344 48.6537 26.5259 48.3214 27.1108 47.7359C27.6957 47.1504 28.0273 46.3586 28.0341 45.5311C28.0409 44.7035 27.7224 43.9064 27.1471 43.3114L8.33588 24.5001L27.1471 5.68885Z" fill="white"/>
</svg>
