<svg width="579" height="249" viewBox="0 0 579 249" fill="none" xmlns="http://www.w3.org/2000/svg">
<g filter="url(#filter0_d_7_21)">
<path d="M71.79 95.46H154.95V143.52H71.79V95.46ZM76.11 204H12.39V15H166.02V63.06H76.11V204ZM256.921 208.32C241.621 208.32 227.401 205.89 214.261 201.03C201.301 196.17 190.051 189.33 180.511 180.51C170.971 171.51 163.501 160.98 158.101 148.92C152.881 136.86 150.271 123.72 150.271 109.5C150.271 95.1 152.881 81.96 158.101 70.08C163.501 58.02 170.971 47.58 180.511 38.76C190.051 29.76 201.301 22.83 214.261 17.97C227.401 13.11 241.621 10.68 256.921 10.68C272.401 10.68 286.621 13.11 299.581 17.97C312.541 22.83 323.791 29.76 333.331 38.76C342.871 47.58 350.251 58.02 355.471 70.08C360.871 81.96 363.571 95.1 363.571 109.5C363.571 123.72 360.871 136.86 355.471 148.92C350.251 160.98 342.871 171.51 333.331 180.51C323.791 189.33 312.541 196.17 299.581 201.03C286.621 205.89 272.401 208.32 256.921 208.32ZM256.921 156.75C262.861 156.75 268.351 155.67 273.391 153.51C278.611 151.35 283.111 148.29 286.891 144.33C290.851 140.19 293.911 135.24 296.071 129.48C298.231 123.54 299.311 116.88 299.311 109.5C299.311 102.12 298.231 95.55 296.071 89.79C293.911 83.85 290.851 78.9 286.891 74.94C283.111 70.8 278.611 67.65 273.391 65.49C268.351 63.33 262.861 62.25 256.921 62.25C250.981 62.25 245.401 63.33 240.181 65.49C235.141 67.65 230.641 70.8 226.681 74.94C222.901 78.9 219.931 83.85 217.771 89.79C215.611 95.55 214.531 102.12 214.531 109.5C214.531 116.88 215.611 123.54 217.771 129.48C219.931 135.24 222.901 140.19 226.681 144.33C230.641 148.29 235.141 151.35 240.181 153.51C245.401 155.67 250.981 156.75 256.921 156.75ZM359.699 204V15H450.689C468.329 15 483.539 17.88 496.319 23.64C509.279 29.4 519.269 37.68 526.289 48.48C533.309 59.1 536.819 71.7 536.819 86.28C536.819 100.86 533.309 113.46 526.289 124.08C519.269 134.52 509.279 142.53 496.319 148.11C483.539 153.69 468.329 156.48 450.689 156.48H395.069L423.419 130.29V204H359.699ZM472.829 204L426.389 135.15H493.889L540.869 204H472.829ZM423.419 137.31L395.069 108.42H446.639C455.459 108.42 461.939 106.44 466.079 102.48C470.399 98.52 472.559 93.12 472.559 86.28C472.559 79.44 470.399 74.04 466.079 70.08C461.939 66.12 455.459 64.14 446.639 64.14H395.069L423.419 35.25V137.31Z" fill="black" fill-opacity="0.81" shape-rendering="crispEdges"/>
</g>
<defs>
<filter id="filter0_d_7_21" x="0.389999" y="0.679993" width="578.479" height="247.64" filterUnits="userSpaceOnUse" color-interpolation-filters="sRGB">
<feFlood flood-opacity="0" result="BackgroundImageFix"/>
<feColorMatrix in="SourceAlpha" type="matrix" values="0 0 0 0 0 0 0 0 0 0 0 0 0 0 0 0 0 0 127 0" result="hardAlpha"/>
<feOffset dx="13" dy="15"/>
<feGaussianBlur stdDeviation="12.5"/>
<feComposite in2="hardAlpha" operator="out"/>
<feColorMatrix type="matrix" values="0 0 0 0 0 0 0 0 0 0 0 0 0 0 0 0 0 0 0.33 0"/>
<feBlend mode="normal" in2="BackgroundImageFix" result="effect1_dropShadow_7_21"/>
<feBlend mode="normal" in="SourceGraphic" in2="effect1_dropShadow_7_21" result="shape"/>
</filter>
</defs>
</svg>
