<svg width="165" height="165" viewBox="0 0 165 165" fill="none" xmlns="http://www.w3.org/2000/svg">
<g filter="url(#filter0_i_11_117)">
<path d="M20.625 30.9375H144.375C150.07 30.9375 154.688 35.5546 154.688 41.25C154.688 46.9454 150.07 51.5625 144.375 51.5625H20.625C14.9296 51.5625 10.3125 46.9454 10.3125 41.25C10.3125 35.5546 14.9296 30.9375 20.625 30.9375Z" fill="#7EBBB2"/>
<path d="M20.625 72.1875H144.375C150.07 72.1875 154.688 76.8046 154.688 82.5C154.688 88.1954 150.07 92.8125 144.375 92.8125H20.625C14.9296 92.8125 10.3125 88.1954 10.3125 82.5C10.3125 76.8046 14.9296 72.1875 20.625 72.1875Z" fill="#7EBBB2"/>
<path d="M19.4792 113.438H83.6458C88.7084 113.438 92.8125 118.055 92.8125 123.75C92.8125 129.445 88.7084 134.062 83.6458 134.062H19.4792C14.4166 134.062 10.3125 129.445 10.3125 123.75C10.3125 118.055 14.4166 113.438 19.4792 113.438Z" fill="#7EBBB2"/>
</g>
<defs>
<filter id="filter0_i_11_117" x="0" y="0" width="169" height="168" filterUnits="userSpaceOnUse" color-interpolation-filters="sRGB">
<feFlood flood-opacity="0" result="BackgroundImageFix"/>
<feBlend mode="normal" in="SourceGraphic" in2="BackgroundImageFix" result="shape"/>
<feColorMatrix in="SourceAlpha" type="matrix" values="0 0 0 0 0 0 0 0 0 0 0 0 0 0 0 0 0 0 127 0" result="hardAlpha"/>
<feOffset dx="4" dy="3"/>
<feGaussianBlur stdDeviation="5.5"/>
<feComposite in2="hardAlpha" operator="arithmetic" k2="-1" k3="1"/>
<feColorMatrix type="matrix" values="0 0 0 0 0 0 0 0 0 0 0 0 0 0 0 0 0 0 0.25 0"/>
<feBlend mode="normal" in2="shape" result="effect1_innerShadow_11_117"/>
</filter>
</defs>
</svg>
