<svg width="44" height="38" viewBox="0 0 44 38" fill="none" xmlns="http://www.w3.org/2000/svg">
<path d="M14.0582 1.10773C14.2417 0.823284 14.5392 0.618181 14.8855 0.537541C15.2318 0.4569 15.5983 0.507327 15.9045 0.677729C16.2108 0.84813 16.4316 1.12455 16.5184 1.44617C16.6052 1.7678 16.5509 2.10828 16.3675 2.39273L9.51506 13.0002H34.3678L27.5127 2.39273C27.3293 2.10828 27.275 1.7678 27.3618 1.44617C27.4486 1.12455 27.6694 0.84813 27.9757 0.677729C28.2819 0.507327 28.6484 0.4569 28.9947 0.537541C29.341 0.618181 29.6385 0.823284 29.822 1.10773L37.5061 13.0002H42.1273C42.4842 13.0002 42.8265 13.1319 43.0788 13.3663C43.3312 13.6008 43.473 13.9187 43.473 14.2502V19.2502C43.473 19.5817 43.3312 19.8997 43.0788 20.1341C42.8265 20.3685 42.4842 20.5002 42.1273 20.5002H40.7815V33.0002C40.7815 34.3263 40.2144 35.5981 39.2049 36.5358C38.1954 37.4734 36.8263 38.0002 35.3987 38.0002H8.48424C7.05661 38.0002 5.68745 37.4734 4.67796 36.5358C3.66848 35.5981 3.10135 34.3263 3.10135 33.0002V20.5002H1.75563C1.39873 20.5002 1.05644 20.3685 0.804065 20.1341C0.551693 19.8997 0.409912 19.5817 0.409912 19.2502V14.2502C0.409912 13.9187 0.551693 13.6008 0.804065 13.3663C1.05644 13.1319 1.39873 13.0002 1.75563 13.0002H6.37684L14.0555 1.10773H14.0582ZM9.82996 24.2502C9.82996 23.9187 9.68818 23.6008 9.4358 23.3663C9.18343 23.1319 8.84114 23.0002 8.48424 23.0002C8.12733 23.0002 7.78504 23.1319 7.53267 23.3663C7.2803 23.6008 7.13852 23.9187 7.13852 24.2502V31.7502C7.13852 32.0817 7.2803 32.3997 7.53267 32.6341C7.78504 32.8685 8.12733 33.0002 8.48424 33.0002C8.84114 33.0002 9.18343 32.8685 9.4358 32.6341C9.68818 32.3997 9.82996 32.0817 9.82996 31.7502V24.2502ZM16.5586 24.2502C16.5586 23.9187 16.4168 23.6008 16.1644 23.3663C15.912 23.1319 15.5697 23.0002 15.2128 23.0002C14.8559 23.0002 14.5136 23.1319 14.2613 23.3663C14.0089 23.6008 13.8671 23.9187 13.8671 24.2502V31.7502C13.8671 32.0817 14.0089 32.3997 14.2613 32.6341C14.5136 32.8685 14.8559 33.0002 15.2128 33.0002C15.5697 33.0002 15.912 32.8685 16.1644 32.6341C16.4168 32.3997 16.5586 32.0817 16.5586 31.7502V24.2502ZM23.2872 24.2502C23.2872 23.9187 23.1454 23.6008 22.893 23.3663C22.6406 23.1319 22.2984 23.0002 21.9414 23.0002C21.5845 23.0002 21.2422 23.1319 20.9899 23.3663C20.7375 23.6008 20.5957 23.9187 20.5957 24.2502V31.7502C20.5957 32.0817 20.7375 32.3997 20.9899 32.6341C21.2422 32.8685 21.5845 33.0002 21.9414 33.0002C22.2984 33.0002 22.6406 32.8685 22.893 32.6341C23.1454 32.3997 23.2872 32.0817 23.2872 31.7502V24.2502ZM30.0158 24.2502C30.0158 23.9187 29.874 23.6008 29.6216 23.3663C29.3692 23.1319 29.027 23.0002 28.67 23.0002C28.3131 23.0002 27.9708 23.1319 27.7185 23.3663C27.4661 23.6008 27.3243 23.9187 27.3243 24.2502V31.7502C27.3243 32.0817 27.4661 32.3997 27.7185 32.6341C27.9708 32.8685 28.3131 33.0002 28.67 33.0002C29.027 33.0002 29.3692 32.8685 29.6216 32.6341C29.874 32.3997 30.0158 32.0817 30.0158 31.7502V24.2502ZM36.7444 24.2502C36.7444 23.9187 36.6026 23.6008 36.3502 23.3663C36.0979 23.1319 35.7556 23.0002 35.3987 23.0002C35.0417 23.0002 34.6995 23.1319 34.4471 23.3663C34.1947 23.6008 34.0529 23.9187 34.0529 24.2502V31.7502C34.0529 32.0817 34.1947 32.3997 34.4471 32.6341C34.6995 32.8685 35.0417 33.0002 35.3987 33.0002C35.7556 33.0002 36.0979 32.8685 36.3502 32.6341C36.6026 32.3997 36.7444 32.0817 36.7444 31.7502V24.2502Z" fill="white"/>
</svg>
